# This file uses centimeters as units for non-parametric coordinates.

mtllib mesa.mtl
g default
v -1.929663 1.351420 3.243023
v 1.570337 1.351420 3.243023
v -1.929663 2.376244 3.243023
v 1.570337 2.376244 3.243023
v -1.929663 2.376244 -3.256977
v 1.570337 2.376244 -3.256977
v -1.929663 1.351420 -3.256977
v 1.570337 1.351420 -3.256977
v 1.070337 -2.636168 3.243023
v 1.570337 -2.636168 3.243023
v 1.070337 1.363832 3.243023
v 1.570337 1.363832 3.243023
v 1.070337 1.363832 2.743023
v 1.570337 1.363832 2.743023
v 1.070337 -2.636168 2.743023
v 1.570337 -2.636168 2.743023
v -1.929663 -2.636168 3.243023
v -1.429663 -2.636168 3.243023
v -1.929663 1.363832 3.243023
v -1.429663 1.363832 3.243023
v -1.929663 1.363832 2.743023
v -1.429663 1.363832 2.743023
v -1.929663 -2.636168 2.743023
v -1.429663 -2.636168 2.743023
v -1.929663 -2.636168 -2.756977
v -1.429663 -2.636168 -2.756977
v -1.929663 1.363832 -2.756977
v -1.429663 1.363832 -2.756977
v -1.929663 1.363832 -3.256977
v -1.429663 1.363832 -3.256977
v -1.929663 -2.636168 -3.256977
v -1.429663 -2.636168 -3.256977
v -2.179663 2.338832 3.493023
v 1.820337 2.338832 3.493023
v -2.179663 2.588832 3.493023
v 1.820337 2.588832 3.493023
v -2.179663 2.588832 -3.506977
v 1.820337 2.588832 -3.506977
v -2.179663 2.338832 -3.506977
v 1.820337 2.338832 -3.506977
v 1.070337 -2.636168 -2.756977
v 1.570337 -2.637137 -2.756977
v 1.070337 1.363832 -2.756977
v 1.570337 1.362863 -2.756977
v 1.070337 1.363832 -3.256977
v 1.570337 1.362863 -3.256977
v 1.070337 -2.636168 -3.256977
v 1.570337 -2.637137 -3.256977
vt 0.810293 0.001060
vt 0.566063 0.476108
vt 0.000000 0.553129
vt 0.566091 0.020435
vt 0.447145 0.554734
vt 0.449691 0.723588
vt 0.447398 0.484234
vt 0.803758 0.920331
vt 0.309539 0.627646
vt 0.343932 0.628086
vt 0.039214 0.969596
vt 0.034393 0.624133
vt 0.073610 0.969582
vt 0.034396 0.969207
vt 0.073500 0.694414
vt 0.309978 0.593253
vt 0.921767 0.668991
vt 0.034727 0.659596
vt 0.391036 0.829615
vt 0.309549 0.696652
vt 0.425417 0.830630
vt 0.840903 0.881089
vt 0.433537 0.555582
vt 0.000000 0.693657
vt 0.035000 0.553755
vt 0.000610 0.553146
vt 0.518122 0.905687
vt 0.310125 0.558632
vt 0.552505 0.906621
vt 0.958217 0.825935
vt 0.559979 0.631554
vt 0.034391 0.588146
vt 0.966555 0.000000
vt 0.003629 0.000000
vt 0.078207 0.921389
vt 0.287130 0.000000
vt 0.559745 0.923879
vt 0.982802 0.439406
vt 0.559834 0.906681
vt 0.275160 0.483604
vt 0.034821 0.624299
vt 0.000428 0.623871
vt 0.923822 0.275159
vt 0.309968 0.627723
vt 0.958216 0.275444
vt 0.958216 0.550722
vt 0.960501 0.000286
vt 0.034393 0.658693
vt 0.982477 0.164239
vt 0.999675 0.164218
vt 0.283501 0.481530
vt 1.000000 0.439386
vt 0.000000 0.481530
vt 0.078296 0.904191
vt 0.558661 0.483604
vt 0.983571 0.481802
vt 0.966374 0.481587
vt 0.562290 0.002074
vt 0.962925 0.756733
vt 0.980122 0.756949
vt 0.522893 0.483624
vt 0.000253 0.482629
vt 0.801991 0.474782
vt 0.919495 0.428150
vt 0.452398 0.482832
vt 0.562114 0.921663
vt 0.562114 0.469156
vt 0.520186 0.724381
vt 0.849003 0.427158
vt 0.805968 0.026060
vt 0.845614 0.667906
vt 0.916107 0.668898
vt 0.887373 0.668659
vt 0.034394 0.693990
vt 0.884718 0.943814
vt 0.919112 0.944146
vt 0.806511 0.880547
vt 0.810844 0.605413
vt 0.343943 0.696985
vt 0.845235 0.605955
vt 0.000332 0.659263
vt 0.399156 0.554567
vt 0.344276 0.662590
vt 0.309882 0.662258
vt 0.883360 0.668499
vt 0.880008 0.943647
vt 0.848966 0.668081
vt 0.845614 0.943228
vt 0.001180 0.693894
vt 0.039104 0.694428
vt 0.000439 0.589301
vt 0.000000 0.623694
vt 0.000000 0.969059
vt 0.344371 0.593692
vt 0.034832 0.589740
vt 0.035575 0.694042
vt 0.923822 0.550372
vt 0.926086 0.275213
vt 0.309540 0.662117
vt 0.960481 0.275563
vt 0.000000 0.658265
vt 0.926106 0.000000
vt 0.343933 0.662544
vt 0.919111 0.275584
vt 0.923218 0.000447
vt 0.344361 0.628151
vt 0.888825 0.000000
vt 0.884718 0.275137
vt 0.923822 0.825670
vt 0.925946 0.550510
vt 0.309515 0.593023
vt 0.960341 0.550776
vt 0.000000 0.587536
vt 0.525596 0.630620
vt 0.343906 0.593633
vt 0.390326 0.829536
vt 0.381422 0.554513
vt 0.344515 0.559242
vt 0.347044 0.555626
vt 0.355948 0.830649
vt 0.806511 0.427720
vt 0.807707 0.474775
vt 0.880405 0.426660
vt 0.884187 0.000000
vt 0.962925 0.481531
vt 0.278789 0.002074
vt 0.980123 0.481661
vt 0.983752 0.000130
vn 0.000000 0.000000 1.000000
vn 0.000000 0.000000 1.000000
vn 0.000000 0.000000 1.000000
vn 0.000000 0.000000 1.000000
vn 0.000000 1.000000 0.000000
vn 0.000000 1.000000 0.000000
vn 0.000000 1.000000 0.000000
vn 0.000000 1.000000 0.000000
vn 0.000000 0.000000 -1.000000
vn 0.000000 0.000000 -1.000000
vn 0.000000 0.000000 -1.000000
vn 0.000000 0.000000 -1.000000
vn 0.000000 -1.000000 0.000000
vn 0.000000 -1.000000 0.000000
vn 0.000000 -1.000000 0.000000
vn 0.000000 -1.000000 0.000000
vn 1.000000 0.000000 0.000000
vn 1.000000 0.000000 0.000000
vn 1.000000 0.000000 0.000000
vn 1.000000 0.000000 0.000000
vn -1.000000 0.000000 0.000000
vn -1.000000 0.000000 0.000000
vn -1.000000 0.000000 0.000000
vn -1.000000 0.000000 0.000000
vn 0.000000 0.000000 1.000000
vn 0.000000 0.000000 1.000000
vn 0.000000 0.000000 1.000000
vn 0.000000 0.000000 1.000000
vn 0.000000 1.000000 0.000000
vn 0.000000 1.000000 0.000000
vn 0.000000 1.000000 0.000000
vn 0.000000 1.000000 0.000000
vn 0.000000 0.000000 -1.000000
vn 0.000000 0.000000 -1.000000
vn 0.000000 0.000000 -1.000000
vn 0.000000 0.000000 -1.000000
vn 0.000000 -1.000000 0.000000
vn 0.000000 -1.000000 0.000000
vn 0.000000 -1.000000 0.000000
vn 0.000000 -1.000000 0.000000
vn 1.000000 0.000000 0.000000
vn 1.000000 0.000000 0.000000
vn 1.000000 0.000000 0.000000
vn 1.000000 0.000000 0.000000
vn -1.000000 0.000000 0.000000
vn -1.000000 0.000000 0.000000
vn -1.000000 0.000000 0.000000
vn -1.000000 0.000000 0.000000
vn 0.000000 0.000000 1.000000
vn 0.000000 0.000000 1.000000
vn 0.000000 0.000000 1.000000
vn 0.000000 0.000000 1.000000
vn 0.000000 1.000000 0.000000
vn 0.000000 1.000000 0.000000
vn 0.000000 1.000000 0.000000
vn 0.000000 1.000000 0.000000
vn 0.000000 0.000000 -1.000000
vn 0.000000 0.000000 -1.000000
vn 0.000000 0.000000 -1.000000
vn 0.000000 0.000000 -1.000000
vn 0.000000 -1.000000 0.000000
vn 0.000000 -1.000000 0.000000
vn 0.000000 -1.000000 0.000000
vn 0.000000 -1.000000 0.000000
vn 1.000000 0.000000 0.000000
vn 1.000000 0.000000 0.000000
vn 1.000000 0.000000 0.000000
vn 1.000000 0.000000 0.000000
vn -1.000000 0.000000 0.000000
vn -1.000000 0.000000 0.000000
vn -1.000000 0.000000 0.000000
vn -1.000000 0.000000 0.000000
vn 0.000000 0.000000 1.000000
vn 0.000000 0.000000 1.000000
vn 0.000000 0.000000 1.000000
vn 0.000000 0.000000 1.000000
vn 0.000000 1.000000 0.000000
vn 0.000000 1.000000 0.000000
vn 0.000000 1.000000 0.000000
vn 0.000000 1.000000 0.000000
vn 0.000000 0.000000 -1.000000
vn 0.000000 0.000000 -1.000000
vn 0.000000 0.000000 -1.000000
vn 0.000000 0.000000 -1.000000
vn 0.000000 -1.000000 0.000000
vn 0.000000 -1.000000 0.000000
vn 0.000000 -1.000000 0.000000
vn 0.000000 -1.000000 0.000000
vn 1.000000 0.000000 0.000000
vn 1.000000 0.000000 0.000000
vn 1.000000 0.000000 0.000000
vn 1.000000 0.000000 0.000000
vn -1.000000 0.000000 0.000000
vn -1.000000 0.000000 0.000000
vn -1.000000 0.000000 0.000000
vn -1.000000 0.000000 0.000000
vn 0.000000 0.000000 1.000000
vn 0.000000 0.000000 1.000000
vn 0.000000 0.000000 1.000000
vn 0.000000 0.000000 1.000000
vn 0.000000 1.000000 0.000000
vn 0.000000 1.000000 0.000000
vn 0.000000 1.000000 0.000000
vn 0.000000 1.000000 0.000000
vn 0.000000 0.000000 -1.000000
vn 0.000000 0.000000 -1.000000
vn 0.000000 0.000000 -1.000000
vn 0.000000 0.000000 -1.000000
vn 0.000000 -1.000000 0.000000
vn 0.000000 -1.000000 0.000000
vn 0.000000 -1.000000 0.000000
vn 0.000000 -1.000000 0.000000
vn 1.000000 0.000000 0.000000
vn 1.000000 0.000000 0.000000
vn 1.000000 0.000000 0.000000
vn 1.000000 0.000000 0.000000
vn -1.000000 0.000000 0.000000
vn -1.000000 0.000000 0.000000
vn -1.000000 0.000000 0.000000
vn -1.000000 0.000000 0.000000
vn 0.000000 0.000000 1.000000
vn 0.000000 0.000000 1.000000
vn 0.000000 0.000000 1.000000
vn 0.000000 0.000000 1.000000
vn 0.001937 0.999998 0.000000
vn 0.001937 0.999998 0.000000
vn 0.001937 0.999998 0.000000
vn 0.001937 0.999998 0.000000
vn 0.000000 0.000000 -1.000000
vn 0.000000 0.000000 -1.000000
vn 0.000000 0.000000 -1.000000
vn 0.000000 0.000000 -1.000000
vn -0.001937 -0.999998 0.000000
vn -0.001937 -0.999998 0.000000
vn -0.001937 -0.999998 0.000000
vn -0.001937 -0.999998 0.000000
vn 1.000000 0.000000 0.000000
vn 1.000000 0.000000 0.000000
vn 1.000000 0.000000 0.000000
vn 1.000000 0.000000 0.000000
vn -1.000000 0.000000 0.000000
vn -1.000000 0.000000 0.000000
vn -1.000000 0.000000 0.000000
vn -1.000000 0.000000 0.000000
s off
g pCube9
usemtl lambert6SG
f 1/71/1 2/69/2 4/64/3 3/72/4
f 3/4/5 4/70/6 6/63/7 5/67/8
f 5/6/9 6/65/10 8/61/11 7/68/12
f 7/8/13 8/66/14 2/2/15 1/122/16
f 2/62/17 8/7/18 6/5/19 4/3/20
f 7/121/21 1/1/22 3/124/23 5/123/24
f 9/87/25 10/85/26 12/86/27 11/88/28
f 11/12/29 12/92/30 14/91/31 13/95/32
f 13/14/33 14/93/34 16/89/35 15/96/36
f 15/16/37 16/94/38 10/10/39 9/9/40
f 10/90/41 16/15/42 14/13/43 12/11/44
f 15/16/45 9/9/46 11/12/47 13/95/48
f 17/74/49 18/18/50 20/84/51 19/20/52
f 19/20/53 20/84/54 22/83/55 21/79/56
f 21/22/57 22/77/58 24/78/59 23/80/60
f 23/24/61 24/81/62 18/18/63 17/74/64
f 18/82/65 24/23/66 22/21/67 20/19/68
f 23/73/69 17/17/70 19/76/71 21/75/72
f 25/119/73 26/117/74 28/116/75 27/120/76
f 27/28/77 28/118/78 30/115/79 29/111/80
f 29/30/81 30/109/82 32/110/83 31/112/84
f 31/32/85 32/113/86 26/26/87 25/25/88
f 26/114/89 32/31/90 30/29/91 28/27/92
f 31/32/93 25/25/94 27/28/95 29/111/96
f 33/59/97 34/57/98 36/56/99 35/60/100
f 35/36/101 36/58/102 38/55/103 37/51/104
f 37/38/105 38/49/106 40/50/107 39/52/108
f 39/40/109 40/53/110 34/34/111 33/126/112
f 34/54/113 40/39/114 38/37/115 36/35/116
f 39/125/117 33/33/118 35/128/119 37/127/120
f 41/107/121 42/105/122 44/104/123 43/108/124
f 43/44/125 44/106/126 46/103/127 45/99/128
f 45/46/129 46/97/130 48/98/131 47/100/132
f 47/48/133 48/101/134 42/42/135 41/41/136
f 42/102/137 48/47/138 46/45/139 44/43/140
f 47/48/141 41/41/142 43/44/143 45/99/144
g default
v -1.929663 1.351420 3.243023
v 1.570337 1.351420 3.243023
v -1.929663 2.376244 3.243023
v 1.570337 2.376244 3.243023
v -1.929663 2.376244 -3.256977
v 1.570337 2.376244 -3.256977
v -1.929663 1.351420 -3.256977
v 1.570337 1.351420 -3.256977
v 1.070337 -2.636168 3.243023
v 1.570337 -2.636168 3.243023
v 1.070337 1.363832 3.243023
v 1.570337 1.363832 3.243023
v 1.070337 1.363832 2.743023
v 1.570337 1.363832 2.743023
v 1.070337 -2.636168 2.743023
v 1.570337 -2.636168 2.743023
v -1.929663 -2.636168 3.243023
v -1.429663 -2.636168 3.243023
v -1.929663 1.363832 3.243023
v -1.429663 1.363832 3.243023
v -1.929663 1.363832 2.743023
v -1.429663 1.363832 2.743023
v -1.929663 -2.636168 2.743023
v -1.429663 -2.636168 2.743023
v -1.929663 -2.636168 -2.756977
v -1.429663 -2.636168 -2.756977
v -1.929663 1.363832 -2.756977
v -1.429663 1.363832 -2.756977
v -1.929663 1.363832 -3.256977
v -1.429663 1.363832 -3.256977
v -1.929663 -2.636168 -3.256977
v -1.429663 -2.636168 -3.256977
v -2.179663 2.338832 3.493023
v 1.820337 2.338832 3.493023
v -2.179663 2.588832 3.493023
v 1.820337 2.588832 3.493023
v -2.179663 2.588832 -3.506977
v 1.820337 2.588832 -3.506977
v -2.179663 2.338832 -3.506977
v 1.820337 2.338832 -3.506977
v 1.070337 -2.636168 -2.756977
v 1.570337 -2.637137 -2.756977
v 1.070337 1.363832 -2.756977
v 1.570337 1.362863 -2.756977
v 1.070337 1.363832 -3.256977
v 1.570337 1.362863 -3.256977
v 1.070337 -2.636168 -3.256977
v 1.570337 -2.637137 -3.256977
vt 0.810293 0.001060
vt 0.566063 0.476108
vt 0.000000 0.553129
vt 0.566091 0.020435
vt 0.447145 0.554734
vt 0.449691 0.723588
vt 0.447398 0.484234
vt 0.803758 0.920331
vt 0.309539 0.627646
vt 0.343932 0.628086
vt 0.039214 0.969596
vt 0.034393 0.624133
vt 0.073610 0.969582
vt 0.034396 0.969207
vt 0.073500 0.694414
vt 0.309978 0.593253
vt 0.921767 0.668991
vt 0.034727 0.659596
vt 0.391036 0.829615
vt 0.309549 0.696652
vt 0.425417 0.830630
vt 0.840903 0.881089
vt 0.433537 0.555582
vt 0.000000 0.693657
vt 0.035000 0.553755
vt 0.000610 0.553146
vt 0.518122 0.905687
vt 0.310125 0.558632
vt 0.552505 0.906621
vt 0.958217 0.825935
vt 0.559979 0.631554
vt 0.034391 0.588146
vt 0.966555 0.000000
vt 0.003629 0.000000
vt 0.078207 0.921389
vt 0.287130 0.000000
vt 0.559745 0.923879
vt 0.982802 0.439406
vt 0.559834 0.906681
vt 0.275160 0.483604
vt 0.034821 0.624299
vt 0.000428 0.623871
vt 0.923822 0.275159
vt 0.309968 0.627723
vt 0.958216 0.275444
vt 0.958216 0.550722
vt 0.960501 0.000286
vt 0.034393 0.658693
vt 0.982477 0.164239
vt 0.999675 0.164218
vt 0.283501 0.481530
vt 1.000000 0.439386
vt 0.000000 0.481530
vt 0.078296 0.904191
vt 0.558661 0.483604
vt 0.983571 0.481802
vt 0.966374 0.481587
vt 0.562290 0.002074
vt 0.962925 0.756733
vt 0.980122 0.756949
vt 0.522893 0.483624
vt 0.000253 0.482629
vt 0.801991 0.474782
vt 0.919495 0.428150
vt 0.452398 0.482832
vt 0.562114 0.921663
vt 0.562114 0.469156
vt 0.520186 0.724381
vt 0.849003 0.427158
vt 0.805968 0.026060
vt 0.845614 0.667906
vt 0.916107 0.668898
vt 0.887373 0.668659
vt 0.034394 0.693990
vt 0.884718 0.943814
vt 0.919112 0.944146
vt 0.806511 0.880547
vt 0.810844 0.605413
vt 0.343943 0.696985
vt 0.845235 0.605955
vt 0.000332 0.659263
vt 0.399156 0.554567
vt 0.344276 0.662590
vt 0.309882 0.662258
vt 0.883360 0.668499
vt 0.880008 0.943647
vt 0.848966 0.668081
vt 0.845614 0.943228
vt 0.001180 0.693894
vt 0.039104 0.694428
vt 0.000439 0.589301
vt 0.000000 0.623694
vt 0.000000 0.969059
vt 0.344371 0.593692
vt 0.034832 0.589740
vt 0.035575 0.694042
vt 0.923822 0.550372
vt 0.926086 0.275213
vt 0.309540 0.662117
vt 0.960481 0.275563
vt 0.000000 0.658265
vt 0.926106 0.000000
vt 0.343933 0.662544
vt 0.919111 0.275584
vt 0.923218 0.000447
vt 0.344361 0.628151
vt 0.888825 0.000000
vt 0.884718 0.275137
vt 0.923822 0.825670
vt 0.925946 0.550510
vt 0.309515 0.593023
vt 0.960341 0.550776
vt 0.000000 0.587536
vt 0.525596 0.630620
vt 0.343906 0.593633
vt 0.390326 0.829536
vt 0.381422 0.554513
vt 0.344515 0.559242
vt 0.347044 0.555626
vt 0.355948 0.830649
vt 0.806511 0.427720
vt 0.807707 0.474775
vt 0.880405 0.426660
vt 0.884187 0.000000
vt 0.962925 0.481531
vt 0.278789 0.002074
vt 0.980123 0.481661
vt 0.983752 0.000130
vn 0.000000 0.000000 1.000000
vn 0.000000 0.000000 1.000000
vn 0.000000 0.000000 1.000000
vn 0.000000 0.000000 1.000000
vn 0.000000 1.000000 0.000000
vn 0.000000 1.000000 0.000000
vn 0.000000 1.000000 0.000000
vn 0.000000 1.000000 0.000000
vn 0.000000 0.000000 -1.000000
vn 0.000000 0.000000 -1.000000
vn 0.000000 0.000000 -1.000000
vn 0.000000 0.000000 -1.000000
vn 0.000000 -1.000000 0.000000
vn 0.000000 -1.000000 0.000000
vn 0.000000 -1.000000 0.000000
vn 0.000000 -1.000000 0.000000
vn 1.000000 0.000000 0.000000
vn 1.000000 0.000000 0.000000
vn 1.000000 0.000000 0.000000
vn 1.000000 0.000000 0.000000
vn -1.000000 0.000000 0.000000
vn -1.000000 0.000000 0.000000
vn -1.000000 0.000000 0.000000
vn -1.000000 0.000000 0.000000
vn 0.000000 0.000000 1.000000
vn 0.000000 0.000000 1.000000
vn 0.000000 0.000000 1.000000
vn 0.000000 0.000000 1.000000
vn 0.000000 1.000000 0.000000
vn 0.000000 1.000000 0.000000
vn 0.000000 1.000000 0.000000
vn 0.000000 1.000000 0.000000
vn 0.000000 0.000000 -1.000000
vn 0.000000 0.000000 -1.000000
vn 0.000000 0.000000 -1.000000
vn 0.000000 0.000000 -1.000000
vn 0.000000 -1.000000 0.000000
vn 0.000000 -1.000000 0.000000
vn 0.000000 -1.000000 0.000000
vn 0.000000 -1.000000 0.000000
vn 1.000000 0.000000 0.000000
vn 1.000000 0.000000 0.000000
vn 1.000000 0.000000 0.000000
vn 1.000000 0.000000 0.000000
vn -1.000000 0.000000 0.000000
vn -1.000000 0.000000 0.000000
vn -1.000000 0.000000 0.000000
vn -1.000000 0.000000 0.000000
vn 0.000000 0.000000 1.000000
vn 0.000000 0.000000 1.000000
vn 0.000000 0.000000 1.000000
vn 0.000000 0.000000 1.000000
vn 0.000000 1.000000 0.000000
vn 0.000000 1.000000 0.000000
vn 0.000000 1.000000 0.000000
vn 0.000000 1.000000 0.000000
vn 0.000000 0.000000 -1.000000
vn 0.000000 0.000000 -1.000000
vn 0.000000 0.000000 -1.000000
vn 0.000000 0.000000 -1.000000
vn 0.000000 -1.000000 0.000000
vn 0.000000 -1.000000 0.000000
vn 0.000000 -1.000000 0.000000
vn 0.000000 -1.000000 0.000000
vn 1.000000 0.000000 0.000000
vn 1.000000 0.000000 0.000000
vn 1.000000 0.000000 0.000000
vn 1.000000 0.000000 0.000000
vn -1.000000 0.000000 0.000000
vn -1.000000 0.000000 0.000000
vn -1.000000 0.000000 0.000000
vn -1.000000 0.000000 0.000000
vn 0.000000 0.000000 1.000000
vn 0.000000 0.000000 1.000000
vn 0.000000 0.000000 1.000000
vn 0.000000 0.000000 1.000000
vn 0.000000 1.000000 0.000000
vn 0.000000 1.000000 0.000000
vn 0.000000 1.000000 0.000000
vn 0.000000 1.000000 0.000000
vn 0.000000 0.000000 -1.000000
vn 0.000000 0.000000 -1.000000
vn 0.000000 0.000000 -1.000000
vn 0.000000 0.000000 -1.000000
vn 0.000000 -1.000000 0.000000
vn 0.000000 -1.000000 0.000000
vn 0.000000 -1.000000 0.000000
vn 0.000000 -1.000000 0.000000
vn 1.000000 0.000000 0.000000
vn 1.000000 0.000000 0.000000
vn 1.000000 0.000000 0.000000
vn 1.000000 0.000000 0.000000
vn -1.000000 0.000000 0.000000
vn -1.000000 0.000000 0.000000
vn -1.000000 0.000000 0.000000
vn -1.000000 0.000000 0.000000
vn 0.000000 0.000000 1.000000
vn 0.000000 0.000000 1.000000
vn 0.000000 0.000000 1.000000
vn 0.000000 0.000000 1.000000
vn 0.000000 1.000000 0.000000
vn 0.000000 1.000000 0.000000
vn 0.000000 1.000000 0.000000
vn 0.000000 1.000000 0.000000
vn 0.000000 0.000000 -1.000000
vn 0.000000 0.000000 -1.000000
vn 0.000000 0.000000 -1.000000
vn 0.000000 0.000000 -1.000000
vn 0.000000 -1.000000 0.000000
vn 0.000000 -1.000000 0.000000
vn 0.000000 -1.000000 0.000000
vn 0.000000 -1.000000 0.000000
vn 1.000000 0.000000 0.000000
vn 1.000000 0.000000 0.000000
vn 1.000000 0.000000 0.000000
vn 1.000000 0.000000 0.000000
vn -1.000000 0.000000 0.000000
vn -1.000000 0.000000 0.000000
vn -1.000000 0.000000 0.000000
vn -1.000000 0.000000 0.000000
vn 0.000000 0.000000 1.000000
vn 0.000000 0.000000 1.000000
vn 0.000000 0.000000 1.000000
vn 0.000000 0.000000 1.000000
vn 0.001937 0.999998 0.000000
vn 0.001937 0.999998 0.000000
vn 0.001937 0.999998 0.000000
vn 0.001937 0.999998 0.000000
vn 0.000000 0.000000 -1.000000
vn 0.000000 0.000000 -1.000000
vn 0.000000 0.000000 -1.000000
vn 0.000000 0.000000 -1.000000
vn -0.001937 -0.999998 0.000000
vn -0.001937 -0.999998 0.000000
vn -0.001937 -0.999998 0.000000
vn -0.001937 -0.999998 0.000000
vn 1.000000 0.000000 0.000000
vn 1.000000 0.000000 0.000000
vn 1.000000 0.000000 0.000000
vn 1.000000 0.000000 0.000000
vn -1.000000 0.000000 0.000000
vn -1.000000 0.000000 0.000000
vn -1.000000 0.000000 0.000000
vn -1.000000 0.000000 0.000000
s off
g pCube9
f 49/199/145 50/197/146 52/192/147 51/200/148
f 51/132/149 52/198/150 54/191/151 53/195/152
f 53/134/153 54/193/154 56/189/155 55/196/156
f 55/136/157 56/194/158 50/130/159 49/250/160
f 50/190/161 56/135/162 54/133/163 52/131/164
f 55/249/165 49/129/166 51/252/167 53/251/168
f 57/215/169 58/213/170 60/214/171 59/216/172
f 59/140/173 60/220/174 62/219/175 61/223/176
f 61/142/177 62/221/178 64/217/179 63/224/180
f 63/144/181 64/222/182 58/138/183 57/137/184
f 58/218/185 64/143/186 62/141/187 60/139/188
f 63/144/189 57/137/190 59/140/191 61/223/192
f 65/202/193 66/146/194 68/212/195 67/148/196
f 67/148/197 68/212/198 70/211/199 69/207/200
f 69/150/201 70/205/202 72/206/203 71/208/204
f 71/152/205 72/209/206 66/146/207 65/202/208
f 66/210/209 72/151/210 70/149/211 68/147/212
f 71/201/213 65/145/214 67/204/215 69/203/216
f 73/247/217 74/245/218 76/244/219 75/248/220
f 75/156/221 76/246/222 78/243/223 77/239/224
f 77/158/225 78/237/226 80/238/227 79/240/228
f 79/160/229 80/241/230 74/154/231 73/153/232
f 74/242/233 80/159/234 78/157/235 76/155/236
f 79/160/237 73/153/238 75/156/239 77/239/240
f 81/187/241 82/185/242 84/184/243 83/188/244
f 83/164/245 84/186/246 86/183/247 85/179/248
f 85/166/249 86/177/250 88/178/251 87/180/252
f 87/168/253 88/181/254 82/162/255 81/254/256
f 82/182/257 88/167/258 86/165/259 84/163/260
f 87/253/261 81/161/262 83/256/263 85/255/264
f 89/235/265 90/233/266 92/232/267 91/236/268
f 91/172/269 92/234/270 94/231/271 93/227/272
f 93/174/273 94/225/274 96/226/275 95/228/276
f 95/176/277 96/229/278 90/170/279 89/169/280
f 90/230/281 96/175/282 94/173/283 92/171/284
f 95/176/285 89/169/286 91/172/287 93/227/288
