# This file uses centimeters as units for non-parametric coordinates.

mtllib palo.mtl
g default
v -0.155089 1.874332 0.075648
v -0.096689 1.875432 0.123248
v -0.100889 2.375632 0.113848
v -0.155889 2.374132 0.068948
v -0.033389 1.875532 0.082548
v -0.041189 2.375832 0.075448
v -0.052589 1.874532 0.009648
v -0.059289 2.374432 0.006848
v -0.127789 1.873832 0.005348
v -0.130189 2.373432 0.002848
v -0.091889 2.876032 0.096948
v -0.161189 2.873632 0.056648
v -0.051489 2.875332 0.027748
v -0.120789 2.872932 -0.012652
v -0.106089 3.375232 0.083148
v -0.170789 3.372832 0.045448
v -0.068389 3.375632 0.018348
v -0.133089 3.373132 -0.019352
v -0.124689 3.874232 0.077048
v -0.184789 3.871932 0.042048
v -0.089589 3.875832 0.016848
v -0.149789 3.873532 -0.018252
v -0.147589 4.373333 0.078948
v -0.203289 4.371732 0.046548
v -0.115289 4.374932 0.023248
v -0.170889 4.373432 -0.009152
v -0.141289 4.873232 0.069748
v -0.211289 4.872633 0.050748
v -0.159789 4.873732 -0.000352
v -0.144889 5.372832 0.071948
v -0.208589 5.373333 0.054648
v -0.161789 5.373432 0.008148
v -0.140189 5.872532 0.072648
v -0.197789 5.873732 0.057048
v -0.155489 5.873032 0.014948
v -0.129589 6.372333 0.070248
v -0.180889 6.373932 0.056348
v -0.143189 6.372632 0.018848
v -0.112989 6.871832 0.064948
v -0.158089 6.873733 0.052648
v -0.124889 6.872232 0.019648
v -0.092589 7.371232 0.061848
v -0.131489 7.373133 0.051348
v -0.102889 7.371733 0.022848
v -0.089489 7.444832 0.061448
v -0.127489 7.446632 0.051148
v -0.099589 7.445333 0.023348
vt 0.000000 0.000000
vt 0.000800 0.000000
vt 0.000800 0.005000
vt 0.000000 0.005000
vt 0.000800 0.000000
vt 0.001600 0.000000
vt 0.001600 0.005000
vt 0.000800 0.005000
vt 0.001600 0.000000
vt 0.002400 0.000000
vt 0.002400 0.005000
vt 0.001600 0.005000
vt 0.002400 0.000000
vt 0.003200 0.000000
vt 0.003200 0.005000
vt 0.002400 0.005000
vt 0.003200 0.000000
vt 0.004000 0.000000
vt 0.004000 0.005000
vt 0.003200 0.005000
vt 0.000800 0.005000
vt 0.001000 0.010000
vt 0.000000 0.010000
vt 0.000000 0.005000
vt 0.001600 0.005000
vt 0.002000 0.010000
vt 0.001000 0.010000
vt 0.000800 0.005000
vt 0.001600 0.005000
vt 0.002400 0.005000
vt 0.002000 0.010000
vt 0.002400 0.005000
vt 0.003200 0.005000
vt 0.003000 0.010000
vt 0.002000 0.010000
vt 0.003200 0.005000
vt 0.004000 0.005000
vt 0.004000 0.010000
vt 0.003000 0.010000
vt 0.000000 0.010000
vt 0.001000 0.010000
vt 0.001000 0.015000
vt 0.000000 0.015000
vt 0.001000 0.010000
vt 0.002000 0.010000
vt 0.002000 0.015000
vt 0.001000 0.015000
vt 0.002000 0.010000
vt 0.003000 0.010000
vt 0.003000 0.015000
vt 0.002000 0.015000
vt 0.003000 0.010000
vt 0.004000 0.010000
vt 0.004000 0.015000
vt 0.003000 0.015000
vt 0.000000 0.015000
vt 0.001000 0.015000
vt 0.001000 0.020000
vt 0.000000 0.020000
vt 0.001000 0.015000
vt 0.002000 0.015000
vt 0.002000 0.020000
vt 0.001000 0.020000
vt 0.002000 0.015000
vt 0.003000 0.015000
vt 0.003000 0.020000
vt 0.002000 0.020000
vt 0.003000 0.015000
vt 0.004000 0.015000
vt 0.004000 0.020000
vt 0.003000 0.020000
vt 0.000000 0.020000
vt 0.001000 0.020000
vt 0.001000 0.025000
vt 0.000000 0.025000
vt 0.001000 0.020000
vt 0.002000 0.020000
vt 0.002000 0.025000
vt 0.001000 0.025000
vt 0.002000 0.020000
vt 0.003000 0.020000
vt 0.003000 0.025000
vt 0.002000 0.025000
vt 0.003000 0.020000
vt 0.004000 0.020000
vt 0.004000 0.025000
vt 0.003000 0.025000
vt 0.001000 0.025000
vt 0.001300 0.030000
vt 0.000000 0.030000
vt 0.000000 0.025000
vt 0.002000 0.025000
vt 0.002700 0.030000
vt 0.001300 0.030000
vt 0.001000 0.025000
vt 0.002000 0.025000
vt 0.003000 0.025000
vt 0.002700 0.030000
vt 0.003000 0.025000
vt 0.004000 0.025000
vt 0.004000 0.030000
vt 0.002700 0.030000
vt 0.000000 0.030000
vt 0.001300 0.030000
vt 0.001300 0.035000
vt 0.000000 0.035000
vt 0.001300 0.030000
vt 0.002700 0.030000
vt 0.002700 0.035000
vt 0.001300 0.035000
vt 0.002700 0.030000
vt 0.004000 0.030000
vt 0.004000 0.035000
vt 0.002700 0.035000
vt 0.000000 0.035000
vt 0.001300 0.035000
vt 0.001300 0.040000
vt 0.000000 0.040000
vt 0.001300 0.035000
vt 0.002700 0.035000
vt 0.002700 0.040000
vt 0.001300 0.040000
vt 0.002700 0.035000
vt 0.004000 0.035000
vt 0.004000 0.040000
vt 0.002700 0.040000
vt 0.000000 0.040000
vt 0.001300 0.040000
vt 0.001300 0.045000
vt 0.000000 0.045000
vt 0.001300 0.040000
vt 0.002700 0.040000
vt 0.002700 0.045000
vt 0.001300 0.045000
vt 0.002700 0.040000
vt 0.004000 0.040000
vt 0.004000 0.045000
vt 0.002700 0.045000
vt 0.000000 0.045000
vt 0.001300 0.045000
vt 0.001300 0.050000
vt 0.000000 0.050000
vt 0.001300 0.045000
vt 0.002700 0.045000
vt 0.002700 0.050000
vt 0.001300 0.050000
vt 0.002700 0.045000
vt 0.004000 0.045000
vt 0.004000 0.050000
vt 0.002700 0.050000
vt 0.000000 0.050000
vt 0.001300 0.050000
vt 0.001300 0.055000
vt 0.000000 0.055000
vt 0.001300 0.050000
vt 0.002700 0.050000
vt 0.002700 0.055000
vt 0.001300 0.055000
vt 0.002700 0.050000
vt 0.004000 0.050000
vt 0.004000 0.055000
vt 0.002700 0.055000
vt 0.000000 0.055000
vt 0.001300 0.055000
vt 0.001300 0.055700
vt 0.000000 0.055700
vt 0.001300 0.055000
vt 0.002700 0.055000
vt 0.002700 0.055700
vt 0.002700 0.055000
vt 0.004000 0.055000
vt 0.004000 0.055700
vn -0.967017 0.001800 0.254705
vn -0.056602 0.018301 0.998229
vn -0.057398 0.019499 0.998161
vn -0.966361 -0.001000 0.257189
vn -0.056602 0.018301 0.998229
vn 0.931925 0.019801 0.362110
vn 0.931186 0.016000 0.364194
vn -0.057398 0.019499 0.998161
vn 0.931925 0.019801 0.362110
vn 0.632475 0.004200 -0.774569
vn 0.633939 -0.007400 -0.773348
vn 0.931186 0.016000 0.364194
vn 0.632475 0.004200 -0.774569
vn -0.541114 -0.006900 -0.840921
vn -0.543015 -0.018301 -0.839523
vn 0.633939 -0.007400 -0.773348
vn -0.541114 -0.006900 -0.840921
vn -0.967017 0.001800 0.254705
vn -0.966361 -0.001000 0.257189
vn -0.543015 -0.018301 -0.839523
vn -0.057398 0.019499 0.998161
vn 0.254091 0.052298 0.965765
vn -0.967027 0.005900 0.254607
vn -0.966361 -0.001000 0.257189
vn 0.931186 0.016000 0.364194
vn 0.965724 0.045201 -0.255606
vn 0.254091 0.052298 0.965765
vn -0.057398 0.019499 0.998161
vn 0.931186 0.016000 0.364194
vn 0.633939 -0.007400 -0.773348
vn 0.965724 0.045201 -0.255606
vn 0.633939 -0.007400 -0.773348
vn -0.543015 -0.018301 -0.839523
vn -0.254892 -0.000900 -0.966969
vn 0.965724 0.045201 -0.255606
vn -0.543015 -0.018301 -0.839523
vn -0.966361 -0.001000 0.257189
vn -0.967027 0.005900 0.254607
vn -0.254892 -0.000900 -0.966969
vn -0.967027 0.005900 0.254607
vn 0.254091 0.052298 0.965765
vn 0.257309 0.027701 0.965932
vn -0.967455 -0.019201 0.252314
vn 0.254091 0.052298 0.965765
vn 0.965724 0.045201 -0.255606
vn 0.965497 0.033900 -0.258199
vn 0.257309 0.027701 0.965932
vn 0.965724 0.045201 -0.255606
vn -0.254892 -0.000900 -0.966969
vn -0.252291 -0.012800 -0.967567
vn 0.965497 0.033900 -0.258199
vn -0.254892 -0.000900 -0.966969
vn -0.967027 0.005900 0.254607
vn -0.967455 -0.019201 0.252314
vn -0.252291 -0.012800 -0.967567
vn -0.967455 -0.019201 0.252314
vn 0.257309 0.027701 0.965932
vn 0.257703 0.014800 0.966111
vn -0.967079 -0.031699 0.252494
vn 0.257309 0.027701 0.965932
vn 0.965497 0.033900 -0.258199
vn 0.964999 0.046500 -0.258100
vn 0.257703 0.014800 0.966111
vn 0.965497 0.033900 -0.258199
vn -0.252291 -0.012800 -0.967567
vn -0.252805 0.000200 -0.967517
vn 0.964999 0.046500 -0.258100
vn -0.252291 -0.012800 -0.967567
vn -0.967455 -0.019201 0.252314
vn -0.967079 -0.031699 0.252494
vn -0.252805 0.000200 -0.967517
vn -0.967079 -0.031699 0.252494
vn 0.257703 0.014800 0.966111
vn 0.247709 -0.000900 0.968834
vn -0.966700 -0.027800 0.254400
vn 0.257703 0.014800 0.966111
vn 0.964999 0.046500 -0.258100
vn 0.966094 0.029500 -0.256499
vn 0.247709 -0.000900 0.968834
vn 0.964999 0.046500 -0.258100
vn -0.252805 0.000200 -0.967517
vn -0.263489 0.002400 -0.964660
vn 0.966094 0.029500 -0.256499
vn -0.252805 0.000200 -0.967517
vn -0.967079 -0.031699 0.252494
vn -0.966700 -0.027800 0.254400
vn -0.263489 0.002400 -0.964660
vn 0.247709 -0.000900 0.968834
vn 0.698986 0.045499 0.713686
vn -0.966804 0.022800 0.254501
vn -0.966700 -0.027800 0.254400
vn 0.966094 0.029500 -0.256499
vn 0.253493 0.056698 -0.965674
vn 0.698986 0.045499 0.713686
vn 0.247709 -0.000900 0.968834
vn 0.966094 0.029500 -0.256499
vn -0.263489 0.002400 -0.964660
vn 0.253493 0.056698 -0.965674
vn -0.263489 0.002400 -0.964660
vn -0.966700 -0.027800 0.254400
vn -0.966804 0.022800 0.254501
vn 0.253493 0.056698 -0.965674
vn -0.966804 0.022800 0.254501
vn 0.698986 0.045499 0.713686
vn 0.702136 -0.002800 0.712037
vn -0.966714 0.011400 0.255604
vn 0.698986 0.045499 0.713686
vn 0.253493 0.056698 -0.965674
vn 0.257894 0.013700 -0.966076
vn 0.702136 -0.002800 0.712037
vn 0.253493 0.056698 -0.965674
vn -0.966804 0.022800 0.254501
vn -0.966714 0.011400 0.255604
vn 0.257894 0.013700 -0.966076
vn -0.966714 0.011400 0.255604
vn 0.702136 -0.002800 0.712037
vn 0.702410 -0.009500 0.711710
vn -0.966156 0.026302 0.256615
vn 0.702136 -0.002800 0.712037
vn 0.257894 0.013700 -0.966076
vn 0.259202 0.005500 -0.965807
vn 0.702410 -0.009500 0.711710
vn 0.257894 0.013700 -0.966076
vn -0.966714 0.011400 0.255604
vn -0.966156 0.026302 0.256615
vn 0.259202 0.005500 -0.965807
vn -0.966156 0.026302 0.256615
vn 0.702410 -0.009500 0.711710
vn 0.702375 -0.013700 0.711675
vn -0.965713 0.039401 0.256604
vn 0.702410 -0.009500 0.711710
vn 0.259202 0.005500 -0.965807
vn 0.259111 -0.003400 -0.965842
vn 0.702375 -0.013700 0.711675
vn 0.259202 0.005500 -0.965807
vn -0.966156 0.026302 0.256615
vn -0.965713 0.039401 0.256604
vn 0.259111 -0.003400 -0.965842
vn -0.965713 0.039401 0.256604
vn 0.702375 -0.013700 0.711675
vn 0.704309 -0.020100 0.709609
vn -0.965934 0.049002 0.254109
vn 0.702375 -0.013700 0.711675
vn 0.259111 -0.003400 -0.965842
vn 0.259505 -0.006500 -0.965720
vn 0.704309 -0.020100 0.709609
vn 0.259111 -0.003400 -0.965842
vn -0.965713 0.039401 0.256604
vn -0.965934 0.049002 0.254109
vn 0.259505 -0.006500 -0.965720
vn -0.965934 0.049002 0.254109
vn 0.704309 -0.020100 0.709609
vn 0.704482 -0.024999 0.709282
vn -0.965364 0.052398 0.255590
vn 0.704309 -0.020100 0.709609
vn 0.259505 -0.006500 -0.965720
vn 0.261497 -0.005200 -0.965190
vn 0.704482 -0.024999 0.709282
vn 0.259505 -0.006500 -0.965720
vn -0.965934 0.049002 0.254109
vn -0.965364 0.052398 0.255590
vn 0.261497 -0.005200 -0.965190
vn -0.965364 0.052398 0.255590
vn 0.704482 -0.024999 0.709282
vn 0.704519 -0.025701 0.709219
vn -0.965283 0.052899 0.255795
vn 0.704482 -0.024999 0.709282
vn 0.261497 -0.005200 -0.965190
vn 0.261802 -0.005000 -0.965109
vn 0.704519 -0.025701 0.709219
vn 0.261497 -0.005200 -0.965190
vn -0.965364 0.052398 0.255590
vn -0.965283 0.052899 0.255795
vn 0.261802 -0.005000 -0.965109
s off
g polySurface13 polySurface11
usemtl lambert13SG
f 1/1/1 2/2/2 3/3/3 4/4/4
f 2/5/5 5/6/6 6/7/7 3/8/8
f 5/9/9 7/10/10 8/11/11 6/12/12
f 7/13/13 9/14/14 10/15/15 8/16/16
f 9/17/17 1/18/18 4/19/19 10/20/20
f 3/21/21 11/22/22 12/23/23 4/24/24
f 6/25/25 13/26/26 11/27/27 3/28/28
f 6/29/29 8/30/30 13/31/31
f 8/32/32 10/33/33 14/34/34 13/35/35
f 10/36/36 4/37/37 12/38/38 14/39/39
f 12/40/40 11/41/41 15/42/42 16/43/43
f 11/44/44 13/45/45 17/46/46 15/47/47
f 13/48/48 14/49/49 18/50/50 17/51/51
f 14/52/52 12/53/53 16/54/54 18/55/55
f 16/56/56 15/57/57 19/58/58 20/59/59
f 15/60/60 17/61/61 21/62/62 19/63/63
f 17/64/64 18/65/65 22/66/66 21/67/67
f 18/68/68 16/69/69 20/70/70 22/71/71
f 20/72/72 19/73/73 23/74/74 24/75/75
f 19/76/76 21/77/77 25/78/78 23/79/79
f 21/80/80 22/81/81 26/82/82 25/83/83
f 22/84/84 20/85/85 24/86/86 26/87/87
f 23/88/88 27/89/89 28/90/90 24/91/91
f 25/92/92 29/93/93 27/94/94 23/95/95
f 25/96/96 26/97/97 29/98/98
f 26/99/99 24/100/100 28/101/101 29/102/102
f 28/103/103 27/104/104 30/105/105 31/106/106
f 27/107/107 29/108/108 32/109/109 30/110/110
f 29/111/111 28/112/112 31/113/113 32/114/114
f 31/115/115 30/116/116 33/117/117 34/118/118
f 30/119/119 32/120/120 35/121/121 33/122/122
f 32/123/123 31/124/124 34/125/125 35/126/126
f 34/127/127 33/128/128 36/129/129 37/130/130
f 33/131/131 35/132/132 38/133/133 36/134/134
f 35/135/135 34/136/136 37/137/137 38/138/138
f 37/139/139 36/140/140 39/141/141 40/142/142
f 36/143/143 38/144/144 41/145/145 39/146/146
f 38/147/147 37/148/148 40/149/149 41/150/150
f 40/151/151 39/152/152 42/153/153 43/154/154
f 39/155/155 41/156/156 44/157/157 42/158/158
f 41/159/159 40/160/160 43/161/161 44/162/162
f 43/163/163 42/164/164 45/165/165 46/166/166
f 42/167/167 44/168/168 47/169/169 45/165/170
f 44/170/171 43/171/172 46/172/173 47/169/174
